# xmcd
#
# Track frame offsets:
# 150
# 24685
# 41567
# 55735
# 73720
# 87590
# 103035
# 119507
# 136165
# 145067
# 160777
# 175152
# 192090
# 208172
# 231402
# 244825
# 273097
#
# Disc length: 3807 seconds
#
#
# Revision: 1
# Processed by: cddbd v1.5.1PL2 Copyright (c) Steve Scherf et al.
# Submitted via: FreeRIP 2.945 
#
DISCID=f50edd11
DTITLE=The Singing Cookes - Greatest Hits  Volume One
DYEAR=1998
DGENRE=Gospel
TTITLE0=Earth's Loss, Heaven's Gain
TTITLE1=Family Ties Won't Be Broken
TTITLE2=He Has Risen
TTITLE3=He Rows Me Over The Tide
TTITLE4=He Will Understand
TTITLE5=He's Alive
TTITLE6=I Hope We Walk The Last Mile Together
TTITLE7=I Want Us To Be Together In Heaven
TTITLE8=My Lord Will Send A Moses
TTITLE9=Oh What A City
TTITLE10=Our First Day In Heaven
TTITLE11=Mama (Send Your Best Angel For Mama)
TTITLE12=There Ain't No Grave
TTITLE13=There Ain't No Grave (Live)
TTITLE14=Victory Is Sweet
TTITLE15=Victory Is Sweet (Live)
TTITLE16=Way Below The Bottom
EXTD=Cooke Records
EXTT0=
EXTT1=
EXTT2=
EXTT3=
EXTT4=
EXTT5=
EXTT6=
EXTT7=
EXTT8=
EXTT9=
EXTT10=
EXTT11=
EXTT12=
EXTT13=
EXTT14=
EXTT15=
EXTT16=
PLAYORDER=
